<svg width="60" height="60" viewBox="0 0 60 60" fill="none" xmlns="http://www.w3.org/2000/svg">
<path d="M28.675 40.695C29.0265 41.0461 29.5031 41.2434 30 41.2434C30.4968 41.2434 30.9734 41.0461 31.325 40.695L36.95 35.0725C37.2812 34.7171 37.4615 34.247 37.4529 33.7612C37.4443 33.2755 37.2476 32.812 36.904 32.4685C36.5605 32.1249 36.097 31.9281 35.6113 31.9196C35.1255 31.911 34.6554 32.0913 34.3 32.4225L30 36.715L25.7 32.4175C25.5269 32.2385 25.32 32.0958 25.0912 31.9976C24.8624 31.8995 24.6163 31.8478 24.3673 31.8458C24.1184 31.8438 23.8715 31.8913 23.6411 31.9857C23.4107 32.0801 23.2014 32.2194 23.0255 32.3955C22.8495 32.5717 22.7104 32.7811 22.6162 33.0116C22.5221 33.242 22.4747 33.489 22.477 33.7379C22.4793 33.9869 22.5311 34.2329 22.6295 34.4616C22.7279 34.6903 22.8708 34.8971 23.05 35.07L28.675 40.695ZM30 22.6375C29.4695 22.6375 28.9608 22.4268 28.5858 22.0517C28.2107 21.6767 28 21.1679 28 20.6375C28 20.1071 28.2107 19.5984 28.5858 19.2233C28.9608 18.8482 29.4695 18.6375 30 18.6375C30.5304 18.6375 31.0391 18.8482 31.4142 19.2233C31.7893 19.5984 32 20.1071 32 20.6375C32 21.1679 31.7893 21.6767 31.4142 22.0517C31.0391 22.4268 30.5304 22.6375 30 22.6375ZM28 27.6775C28 27.9402 28.0517 28.2002 28.1522 28.4429C28.2527 28.6855 28.4 28.906 28.5858 29.0917C28.7715 29.2774 28.992 29.4248 29.2346 29.5253C29.4773 29.6258 29.7373 29.6775 30 29.6775C30.2626 29.6775 30.5227 29.6258 30.7653 29.5253C31.008 29.4248 31.2285 29.2774 31.4142 29.0917C31.5999 28.906 31.7472 28.6855 31.8477 28.4429C31.9482 28.2002 32 27.9402 32 27.6775C32 27.1471 31.7893 26.6384 31.4142 26.2633C31.0391 25.8882 30.5304 25.6775 30 25.6775C29.4695 25.6775 28.9608 25.8882 28.5858 26.2633C28.2107 26.6384 28 27.1471 28 27.6775Z" fill="#FFF4C8"/>
<path fill-rule="evenodd" clip-rule="evenodd" d="M30 5.0025C25.0272 5.0025 20.2581 6.97794 16.7417 10.4943C13.2254 14.0106 11.25 18.7797 11.25 23.7525V36.2525C11.25 41.2253 13.2254 45.9944 16.7417 49.5108C20.2581 53.0271 25.0272 55.0025 30 55.0025C34.9728 55.0025 39.7419 53.0271 43.2583 49.5108C46.7746 45.9944 48.75 41.2253 48.75 36.2525V23.7525C48.75 18.7797 46.7746 14.0106 43.2583 10.4943C39.7419 6.97794 34.9728 5.0025 30 5.0025ZM15 23.7525C15 19.7743 16.5804 15.9589 19.3934 13.1459C22.2064 10.3329 26.0218 8.7525 30 8.7525C33.9782 8.7525 37.7936 10.3329 40.6066 13.1459C43.4197 15.9589 45 19.7743 45 23.7525V36.2525C45 40.2308 43.4197 44.0461 40.6066 46.8591C37.7936 49.6722 33.9782 51.2525 30 51.2525C26.0218 51.2525 22.2064 49.6722 19.3934 46.8591C16.5804 44.0461 15 40.2308 15 36.2525V23.7525Z" fill="#FFF4C8"/>
</svg>
